<svg width="169" height="27" viewBox="0 0 169 27" fill="none" xmlns="http://www.w3.org/2000/svg">
<path d="M14.0096 26.4452C11.2536 26.4452 8.8368 25.9364 6.7592 24.9188C4.6816 23.88 3.0598 22.4278 1.8938 20.5622C0.749 18.6966 0.1766 16.5236 0.1766 14.0432C0.1766 11.5416 0.749 9.3686 1.8938 7.5242C3.0598 5.6798 4.7028 4.2488 6.8228 3.2312C8.9428 2.2136 11.455 1.7048 14.3594 1.7048C15.059 1.7048 15.642 1.7366 16.1084 1.8002C16.5748 1.8426 17.0094 1.8956 17.4122 1.9592C17.815 2.0228 18.2708 2.0864 18.7796 2.15C19.3096 2.1924 19.9668 2.2136 20.7512 2.2136L21.7052 8.5736H21.3872C21.154 7.3228 20.6876 6.2204 19.988 5.2664C19.3096 4.2912 18.451 3.528 17.4122 2.9768C16.3946 2.4044 15.2604 2.1182 14.0096 2.1182C12.78 2.1182 11.6458 2.415 10.607 3.0086C9.5682 3.6022 8.6778 4.429 7.9358 5.489C7.1938 6.5702 6.6108 7.8634 6.1868 9.3686C5.784 10.8526 5.5826 12.485 5.5826 14.2658C5.5826 16.619 5.943 18.6754 6.6638 20.435C7.3846 22.1734 8.4022 23.5302 9.7166 24.5054C11.031 25.4594 12.5786 25.9364 14.3594 25.9364C16.3946 25.9364 18.0694 25.3322 19.3838 24.1238C20.7194 22.8942 21.5462 21.1876 21.8642 19.004H22.1822L21.26 25.8728C20.2636 25.8728 19.3838 25.9152 18.6206 26C17.8574 26.106 17.1154 26.2014 16.3946 26.2862C15.695 26.3922 14.9 26.4452 14.0096 26.4452ZM30.8763 26.3816C29.4135 26.3816 28.1097 26.0212 26.9649 25.3004C25.8413 24.5796 24.9615 23.5832 24.3255 22.3112C23.6895 21.018 23.3715 19.5446 23.3715 17.891C23.3715 16.195 23.7213 14.711 24.4209 13.439C25.1205 12.167 26.0745 11.1812 27.2829 10.4816C28.5125 9.7608 29.9011 9.4004 31.4487 9.4004C32.7419 9.4004 33.8867 9.6548 34.8831 10.1636C35.9007 10.6724 36.7063 11.3932 37.2999 12.326C37.9147 13.2376 38.2645 14.2976 38.3493 15.506L38.3811 15.983H27.6963V16.142C27.6963 18.3892 28.1945 20.1912 29.1909 21.548C30.1873 22.8836 31.5229 23.5514 33.1977 23.5514C34.2153 23.5514 35.1799 23.3076 36.0915 22.82C37.0243 22.3112 37.7769 21.6328 38.3493 20.7848L38.6355 20.8802C38.2751 21.9614 37.7133 22.9154 36.9501 23.7422C36.1869 24.569 35.2859 25.2156 34.2471 25.682C33.2083 26.1484 32.0847 26.3816 30.8763 26.3816ZM27.7281 15.506H34.1835C34.1835 13.8312 33.9079 12.4744 33.3567 11.4356C32.8267 10.3968 32.0741 9.8774 31.0989 9.8774C30.1661 9.8774 29.3923 10.3862 28.7775 11.4038C28.1627 12.4214 27.8129 13.7888 27.7281 15.506ZM38.2842 26V25.682C39.0474 25.682 39.6622 25.4594 40.1286 25.0142C40.6162 24.5478 40.86 23.9224 40.86 23.138V5.012C40.86 4.2488 40.6162 3.634 40.1286 3.1676C39.6622 2.7012 39.0474 2.468 38.2842 2.468V2.15H41.5278C42.609 2.15 43.4358 2.0334 44.0082 1.8002C44.5382 1.567 44.9092 1.2808 45.1212 0.941599H45.4392V23.138C45.4392 23.9224 45.6724 24.5478 46.1388 25.0142C46.6264 25.4594 47.2518 25.682 48.015 25.682V26H38.2842ZM55.5647 26.3816C54.1019 26.3816 52.7981 26.0212 51.6533 25.3004C50.5297 24.5796 49.6499 23.5832 49.0139 22.3112C48.3779 21.018 48.0599 19.5446 48.0599 17.891C48.0599 16.195 48.4097 14.711 49.1093 13.439C49.8089 12.167 50.7629 11.1812 51.9713 10.4816C53.2009 9.7608 54.5895 9.4004 56.1371 9.4004C57.4303 9.4004 58.5751 9.6548 59.5715 10.1636C60.5891 10.6724 61.3947 11.3932 61.9883 12.326C62.6031 13.2376 62.9529 14.2976 63.0377 15.506L63.0695 15.983H52.3847V16.142C52.3847 18.3892 52.8829 20.1912 53.8793 21.548C54.8757 22.8836 56.2113 23.5514 57.8861 23.5514C58.9037 23.5514 59.8683 23.3076 60.7799 22.82C61.7127 22.3112 62.4653 21.6328 63.0377 20.7848L63.3239 20.8802C62.9635 21.9614 62.4017 22.9154 61.6385 23.7422C60.8753 24.569 59.9743 25.2156 58.9355 25.682C57.8967 26.1484 56.7731 26.3816 55.5647 26.3816ZM52.4165 15.506H58.8719C58.8719 13.8312 58.5963 12.4744 58.0451 11.4356C57.5151 10.3968 56.7625 9.8774 55.7873 9.8774C54.8545 9.8774 54.0807 10.3862 53.4659 11.4038C52.8511 12.4214 52.5013 13.7888 52.4165 15.506ZM70.112 26.4452C69.5608 26.4452 69.1474 26.424 68.8718 26.3816C68.5962 26.3392 68.3312 26.2862 68.0768 26.2226C67.8436 26.159 67.5256 26.106 67.1228 26.0636C66.72 26.0212 66.1052 26 65.2784 26L64.5152 20.0216H64.9286C65.2678 22.0144 65.9038 23.5196 66.8366 24.5372C67.7694 25.5336 68.787 26.0318 69.8894 26.0318C70.9706 26.0318 71.7868 25.8092 72.338 25.364C72.9104 24.9188 73.1966 24.3146 73.1966 23.5514C73.1966 23.0638 73.0694 22.6398 72.815 22.2794C72.5818 21.8978 72.1684 21.5162 71.5748 21.1346C70.9812 20.7318 70.1756 20.2548 69.158 19.7036L68.2358 19.1948C67.0698 18.5376 66.2006 17.7744 65.6282 16.9052C65.077 16.0148 64.8014 15.0608 64.8014 14.0432C64.8014 12.6016 65.3208 11.4674 66.3596 10.6406C67.4196 9.8138 68.8294 9.4004 70.589 9.4004C71.0342 9.4004 71.3946 9.4216 71.6702 9.464C71.9458 9.5064 72.2108 9.5594 72.4652 9.623C72.7196 9.6866 73.0376 9.7396 73.4192 9.782C73.8008 9.8244 74.3096 9.8456 74.9456 9.8456L75.3908 14.9654H75.0092C74.882 13.969 74.5958 13.0892 74.1506 12.326C73.7266 11.5416 73.2178 10.9374 72.6242 10.5134C72.0306 10.0682 71.4264 9.8456 70.8116 9.8456C70.006 9.8456 69.3594 10.0576 68.8718 10.4816C68.4054 10.9056 68.1722 11.4992 68.1722 12.2624C68.1722 12.8348 68.3524 13.3648 68.7128 13.8524C69.0944 14.3188 69.8152 14.8276 70.8752 15.3788L71.8292 15.8558C73.3132 16.619 74.3944 17.414 75.0728 18.2408C75.7512 19.0676 76.0904 20.1276 76.0904 21.4208C76.0904 24.728 74.0976 26.4028 70.112 26.4452ZM82.6367 26.4452C81.5343 26.4452 80.6333 26.0954 79.9337 25.3958C79.2341 24.6962 78.8843 23.7846 78.8843 22.661V10.418H76.1813V10.0046C77.6441 9.8986 78.9479 9.4322 80.0927 8.6054C81.2587 7.7786 82.2127 6.6656 82.9547 5.2664H83.4635V9.8456H87.6929L87.3749 10.418H83.4635V21.9614C83.4635 23.6574 84.0359 24.5054 85.1807 24.5054C85.5623 24.5054 85.9969 24.3888 86.4845 24.1556C86.9933 23.9224 87.4703 23.615 87.9155 23.2334V23.5514C87.2159 24.4418 86.3891 25.152 85.4351 25.682C84.4811 26.1908 83.5483 26.4452 82.6367 26.4452ZM87.6042 26V25.682H87.636C88.3992 25.682 89.014 25.4488 89.4804 24.9824C89.9468 24.516 90.18 23.9012 90.18 23.138V12.7076C90.18 11.902 90.0104 11.2766 89.6712 10.8314C89.3532 10.3862 88.6642 10.1636 87.6042 10.1636V9.8456H90.8478C91.929 9.8456 92.7558 9.729 93.3282 9.4958C93.8582 9.2626 94.2292 8.9764 94.4412 8.6372H94.7592V23.138C94.7592 23.9012 94.9924 24.516 95.4588 24.9824C95.9252 25.4488 96.54 25.682 97.3032 25.682H97.335V26H87.6042ZM92.4378 6.6338C91.6746 6.6338 91.0386 6.39 90.5298 5.9024C90.0422 5.3936 89.7984 4.7576 89.7984 3.9944C89.7984 3.2312 90.0422 2.6058 90.5298 2.1182C91.0386 1.6094 91.6746 1.355 92.4378 1.355C93.1798 1.355 93.7946 1.6094 94.2822 2.1182C94.791 2.627 95.0454 3.2524 95.0454 3.9944C95.0454 4.7364 94.791 5.3618 94.2822 5.8706C93.7946 6.3794 93.1798 6.6338 92.4378 6.6338ZM102.101 26.4452C100.808 26.4452 99.7691 26.0954 98.9847 25.3958C98.2003 24.6962 97.8081 23.774 97.8081 22.6292C97.8081 22.1416 97.8929 21.6858 98.0625 21.2618C98.2321 20.8166 98.5501 20.382 99.0165 19.958C99.5041 19.534 100.172 19.0994 101.02 18.6542C101.868 18.1878 102.991 17.7002 104.391 17.1914L107.348 16.1102V13.7252C107.348 12.5168 107.157 11.5628 106.776 10.8632C106.394 10.1424 105.864 9.782 105.186 9.782C104.38 9.8032 103.691 10.3332 103.119 11.372C102.567 12.4108 102.196 13.8524 102.006 15.6968L98.5713 13.7252C98.9317 12.856 99.4829 12.0928 100.225 11.4356C100.967 10.7784 101.815 10.2696 102.769 9.9092C103.744 9.5488 104.762 9.3686 105.822 9.3686C107.624 9.3686 109.086 9.8774 110.21 10.895C111.355 11.8914 111.927 13.2588 111.927 14.9972V22.661C111.927 23.8906 112.341 24.5054 113.167 24.5054C113.655 24.5054 114.132 24.2404 114.598 23.7104L114.853 23.933C114.302 24.675 113.634 25.2792 112.849 25.7456C112.065 26.212 111.302 26.4452 110.56 26.4452C109.754 26.4452 109.055 26.1696 108.461 25.6184C107.889 25.0672 107.528 24.3358 107.38 23.4242C106.341 24.4842 105.429 25.258 104.645 25.7456C103.882 26.212 103.034 26.4452 102.101 26.4452ZM104.486 24.4736C104.952 24.4736 105.398 24.357 105.822 24.1238C106.267 23.8906 106.765 23.509 107.316 22.979L107.348 16.5236L106.076 17.0006C104.995 17.4034 104.168 17.8168 103.596 18.2408C103.023 18.6436 102.62 19.0994 102.387 19.6082C102.175 20.117 102.069 20.7 102.069 21.3572C102.069 22.2688 102.292 23.0214 102.737 23.615C103.203 24.1874 103.786 24.4736 104.486 24.4736ZM119.878 26V25.682C120.281 25.6396 120.684 25.4488 121.086 25.1096C121.51 24.7492 121.903 24.304 122.263 23.774C122.623 23.244 122.899 22.7246 123.09 22.2158L131.485 1.673H131.771L140.039 22.2158C140.972 24.5266 142.011 25.682 143.156 25.682H143.251V26H133.075V25.682H133.202C134.156 25.682 134.792 25.3958 135.11 24.8234C135.449 24.2298 135.407 23.4136 134.983 22.3748L133.075 17.6366H125.411L123.63 22.0568C123.249 22.9684 123.291 23.7952 123.758 24.5372C124.245 25.258 125.019 25.6396 126.079 25.682V26H119.878ZM125.57 17.2232H132.916L129.291 8.0648L125.57 17.2232ZM142.291 26V25.682H142.323C143.086 25.682 143.701 25.4488 144.167 24.9824C144.633 24.516 144.867 23.9012 144.867 23.138V12.7076C144.867 11.902 144.697 11.2766 144.358 10.8314C144.04 10.3862 143.351 10.1636 142.291 10.1636V9.8456H145.439C146.563 9.8456 147.411 9.7396 147.983 9.5276C148.555 9.2944 148.958 8.9976 149.191 8.6372H149.35L149.382 13.8524C149.658 13.2164 150.008 12.5486 150.432 11.849C150.877 11.1494 151.428 10.5664 152.085 10.1C152.764 9.6124 153.569 9.3686 154.502 9.3686C154.82 9.3686 155.159 9.4004 155.52 9.464C155.88 9.5276 156.262 9.6442 156.664 9.8138L155.424 13.5344C154.661 13.1104 153.993 12.8136 153.421 12.644C152.87 12.4744 152.382 12.3896 151.958 12.3896C151.237 12.3896 150.697 12.6122 150.336 13.0574C149.997 13.5026 149.7 14.0326 149.446 14.6474V23.138C149.446 23.9012 149.679 24.516 150.145 24.9824C150.612 25.4488 151.227 25.682 151.99 25.682H152.022V26H142.291ZM163.41 26.4452C162.308 26.4452 161.407 26.0954 160.707 25.3958C160.007 24.6962 159.658 23.7846 159.658 22.661V10.418H156.955V10.0046C158.417 9.8986 159.721 9.4322 160.866 8.6054C162.032 7.7786 162.986 6.6656 163.728 5.2664H164.237V9.8456H168.466L168.148 10.418H164.237V21.9614C164.237 23.6574 164.809 24.5054 165.954 24.5054C166.336 24.5054 166.77 24.3888 167.258 24.1556C167.767 23.9224 168.244 23.615 168.689 23.2334V23.5514C167.989 24.4418 167.162 25.152 166.208 25.682C165.254 26.1908 164.322 26.4452 163.41 26.4452Z" fill="black"/>
</svg>
