<?xml version="1.0" encoding="UTF-8"?>
<svg version="1.1" xmlns="http://www.w3.org/2000/svg" width="253" height="252">
<path d="M0 0 C0.81446594 -0.00807175 1.62893188 -0.01614349 2.46807861 -0.02445984 C4.19272777 -0.03824889 5.91740362 -0.04899404 7.64208984 -0.05688477 C9.36971292 -0.06829936 11.09730376 -0.08857993 12.82470703 -0.1184082 C41.84118301 -0.61792246 70.626206 8.65706109 92.515625 28.23828125 C93.75505859 29.29982422 93.75505859 29.29982422 95.01953125 30.3828125 C118.50691561 50.85807428 133.82011412 79.1937296 137.515625 110.23828125 C137.83027962 115.40562476 137.90579833 120.56279476 137.890625 125.73828125 C137.89008118 126.43904785 137.88953735 127.13981445 137.88897705 127.86181641 C137.76560869 162.56286753 124.24992984 193.07586972 99.94824219 217.82421875 C79.74413486 237.76665052 50.72484237 252.19972629 22.03125 252.4765625 C20.80955109 252.48867012 20.80955109 252.48867012 19.56317139 252.50102234 C17.83852223 252.51481139 16.11384638 252.52555654 14.38916016 252.53344727 C12.66153708 252.54486186 10.93394624 252.56514243 9.20654297 252.5949707 C-23.65053033 253.16060026 -52.06999734 240.95143091 -76.484375 219.23828125 C-77.28359375 218.52929688 -78.0828125 217.8203125 -78.90625 217.08984375 C-99.43840463 197.62536116 -114.19352129 167.1419652 -115.66137695 138.82348633 C-116.348113 98.86420334 -107.63279457 65.75676086 -79.3515625 36.11328125 C-58.98788511 15.37532252 -29.41351135 0.283782 0 0 Z " fill="#010101" transform="translate(115.484375,-0.23828125)"/>
<path d="M0 0 C0.81446594 -0.00807175 1.62893188 -0.01614349 2.46807861 -0.02445984 C4.19272777 -0.03824889 5.91740362 -0.04899404 7.64208984 -0.05688477 C9.36971292 -0.06829936 11.09730376 -0.08857993 12.82470703 -0.1184082 C41.84118301 -0.61792246 70.626206 8.65706109 92.515625 28.23828125 C93.75505859 29.29982422 93.75505859 29.29982422 95.01953125 30.3828125 C118.50691561 50.85807428 133.82011412 79.1937296 137.515625 110.23828125 C137.83027962 115.40562476 137.90579833 120.56279476 137.890625 125.73828125 C137.89008118 126.43904785 137.88953735 127.13981445 137.88897705 127.86181641 C137.76560869 162.56286753 124.24992984 193.07586972 99.94824219 217.82421875 C79.74413486 237.76665052 50.72484237 252.19972629 22.03125 252.4765625 C20.80955109 252.48867012 20.80955109 252.48867012 19.56317139 252.50102234 C17.83852223 252.51481139 16.11384638 252.52555654 14.38916016 252.53344727 C12.66153708 252.54486186 10.93394624 252.56514243 9.20654297 252.5949707 C-23.65053033 253.16060026 -52.06999734 240.95143091 -76.484375 219.23828125 C-77.28359375 218.52929688 -78.0828125 217.8203125 -78.90625 217.08984375 C-99.43840463 197.62536116 -114.19352129 167.1419652 -115.66137695 138.82348633 C-116.348113 98.86420334 -107.63279457 65.75676086 -79.3515625 36.11328125 C-58.98788511 15.37532252 -29.41351135 0.283782 0 0 Z M-69.08203125 53.49609375 C-91.74812386 79.36860922 -98.47507223 109.35661435 -96.484375 143.23828125 C-95.83633097 148.82973804 -94.36171983 153.92791019 -92.484375 159.23828125 C-92.05511033 160.56612232 -91.6267532 161.89425707 -91.19921875 163.22265625 C-82.00822665 190.6217223 -61.84427701 211.92682548 -36.484375 225.23828125 C-13.374418 236.4161742 15.75335268 239.78949203 40.515625 232.23828125 C41.18416504 232.03960449 41.85270508 231.84092773 42.54150391 231.63623047 C56.68281423 227.34855178 69.24029012 220.91456864 80.515625 211.23828125 C81.34835938 210.52671875 82.18109375 209.81515625 83.0390625 209.08203125 C102.8555486 191.70541281 116.40316525 167.57539292 119.515625 141.23828125 C119.77307731 136.75420905 119.79639888 132.29120358 119.765625 127.80078125 C119.77335938 126.67607422 119.78109375 125.55136719 119.7890625 124.39257812 C119.72201087 95.20835727 107.54551224 69.81579414 87.640625 48.86328125 C63.33955684 25.80048408 34.19447838 18.56569171 1.47509766 19.15380859 C-25.45580893 19.92250136 -50.72843386 34.39883358 -69.08203125 53.49609375 Z " fill="#FCFCFC" transform="translate(115.484375,-0.23828125)"/>
<path d="M0 0 C0.66676758 0.07686035 1.33353516 0.1537207 2.02050781 0.23291016 C23.1700031 2.82821425 40.90003486 11.92647964 56 27 C57.02673828 28.00933594 57.02673828 28.00933594 58.07421875 29.0390625 C73.92039386 45.66353697 81.59210542 68.12187003 81.48754883 90.82910156 C81.04683288 105.60433533 76.88936594 127.11063406 66 138 C41.95020515 140.26289098 20.96011936 131.6580257 2.28125 116.84375 C-14.24243086 102.76802186 -25.79750197 80.64894401 -28 59 C-29.32416905 40.96390438 -26.02592148 24.20047114 -18 8 C-17.65710938 7.12988281 -17.31421875 6.25976562 -16.9609375 5.36328125 C-13.51237203 -2.1788104 -7.34756353 -0.88625251 0 0 Z " fill="#FDFDFD" transform="translate(135,38)"/>
</svg>
