<svg width="148" height="148" viewBox="0 0 148 148" fill="none" xmlns="http://www.w3.org/2000/svg">
<rect width="148" height="148" rx="27" fill="black"/>
<path d="M124 72C124 99.6142 101.614 122 74 122C46.3858 122 24 99.6142 24 72C24 44.3858 46.3858 22 74 22C101.614 22 124 44.3858 124 72ZM29 72C29 96.8528 49.1472 117 74 117C98.8528 117 119 96.8528 119 72C119 47.1472 98.8528 27 74 27C49.1472 27 29 47.1472 29 72Z" fill="white"/>
<path d="M31.6116 50.4374C28.8435 56.1691 23.9118 60.5665 17.9014 62.662L17.1113 60.3958C22.5206 58.5098 26.9591 54.5522 29.4505 49.3936L31.6116 50.4374Z" fill="white"/>
<path d="M116.388 50.4374C119.157 56.1691 124.088 60.5665 130.099 62.662L130.889 60.3958C125.479 58.5098 121.041 54.5522 118.55 49.3936L116.388 50.4374Z" fill="white"/>
<path d="M116.062 56.0127C133.029 59.6623 144 65.4646 144 72C144 83.0457 112.66 92 74 92C35.3401 92 4 83.0457 4 72C4 65.4648 14.9709 59.6623 31.9375 56.0127C30.9357 58.6485 30.1798 61.3796 29.6865 64.1719C25.976 66.4862 24 69.156 24 72C24 80.8366 43.0721 88 74 88C104.928 88 124 80.8366 124 72C124 69.1558 122.023 66.4863 118.312 64.1719C117.819 61.3795 117.063 58.6485 116.062 56.0127Z" fill="white"/>
</svg>
